<svg width="191" height="219" viewBox="0 0 191 219" fill="none" xmlns="http://www.w3.org/2000/svg">
<path d="M50.2016 28.2724C50.7117 26.723 52.0245 26.8313 52.9359 26.1107C53.8473 25.3901 55.3839 26.3969 55.3839 26.3969L70.7444 67.5734L120.879 201.969L118.315 206.218L114.786 204.565L64.9276 68.4694L50.2016 28.2724Z" fill="#F7D57B"/>
<path d="M64.9276 68.4694L114.786 204.565L118.315 206.218L120.879 201.969L70.7444 67.5734M64.9276 68.4694L50.2016 28.2724C50.7117 26.723 52.0245 26.8313 52.9359 26.1107C53.8473 25.3901 55.3839 26.3969 55.3839 26.3969L70.7444 67.5734M64.9276 68.4694L69.2859 70.2076L70.7444 67.5734" stroke="#F7D57B"/>
<path d="M69.4767 68.5756L64.941 68.4589L114.425 204.109C114.425 204.109 116.116 207.331 118.675 206.674C121.206 206.024 121.214 205.198 121.239 202.515L121.24 202.425L70.579 66.223L69.4767 68.5756Z" fill="#5E2224" stroke="#5E2224"/>
<path d="M116.609 203.124L68.2791 71.7442" stroke="#D2784E" stroke-linecap="round"/>
<path d="M50.2016 28.2724C50.3948 27.4579 50.7904 27.0573 51.6641 26.3755C53.6743 25.564 55.4793 25.5809 55.3839 26.3969C55.2885 27.2129 52.6496 28.5587 52.6496 28.5587C52.6496 28.5587 50.8385 29.1633 50.2016 28.2724Z" fill="#F7E7AC"/>
<path d="M52.8191 30.6464L65.6829 65.6505M51.6641 26.3755C50.7904 27.0573 50.3948 27.4579 50.2016 28.2724C50.8385 29.1633 52.6496 28.5587 52.6496 28.5587C52.6496 28.5587 55.2885 27.2129 55.3839 26.3969C55.4793 25.5809 53.6743 25.564 51.6641 26.3755Z" stroke="#F7E7AC" stroke-linecap="round"/>
<path d="M57.0099 22.6013C57.3851 21.0138 58.7023 21.009 59.5486 20.2129C60.3948 19.4168 62.0121 20.288 62.0121 20.288L80.8489 59.9947L142.33 189.593L140.139 194.047L136.482 192.702L75.1305 61.3866L57.0099 22.6013Z" fill="#F7D57B"/>
<path d="M75.1305 61.3866L136.482 192.702L140.139 194.047L142.33 189.593L80.8489 59.9947M75.1305 61.3866L57.0099 22.6013C57.3851 21.0138 58.7023 21.009 59.5486 20.2129C60.3948 19.4168 62.0121 20.288 62.0121 20.288L80.8489 59.9947M75.1305 61.3866L79.6218 62.7444L80.8489 59.9947" stroke="#F7D57B"/>
<path d="M79.6719 61.1021L75.1428 61.3749L136.084 192.279C136.084 192.279 138.044 195.345 140.537 194.47C143.003 193.605 142.94 192.782 142.735 190.106L142.728 190.016L80.5682 58.6636L79.6719 61.1021Z" fill="#5E2224" stroke="#5E2224"/>
<path d="M138.174 191.11L78.7505 64.3618" stroke="#D2784E" stroke-linecap="round"/>
<path d="M57.0098 22.6013C57.1324 21.7732 57.4922 21.3401 58.3042 20.5859C60.2373 19.6049 62.0371 19.4669 62.0121 20.288C61.987 21.1092 59.4734 22.6764 59.4734 22.6764C59.4734 22.6764 57.7208 23.4343 57.0098 22.6013Z" fill="#F7E7AC"/>
<path d="M59.8214 24.7419L75.6411 58.5133M58.3042 20.5859C57.4922 21.3401 57.1324 21.7732 57.0098 22.6013C57.7208 23.4343 59.4734 22.6764 59.4734 22.6764C59.4734 22.6764 61.987 21.1092 62.0121 20.288C62.0371 19.4669 60.2373 19.6049 58.3042 20.5859Z" stroke="#F7E7AC" stroke-linecap="round"/>
<path d="M60.623 15.6598C61.3114 14.1809 62.6024 14.4425 63.5921 13.8339C64.5818 13.2253 65.9896 14.4055 65.9896 14.4055L76.4105 57.1004L110.423 196.452L107.377 200.371L104.067 198.315L70.5288 57.3074L60.623 15.6598Z" fill="#F7D57B"/>
<path d="M70.5288 57.3074L104.067 198.315L107.377 200.371L110.423 196.452L76.4105 57.1004M70.5288 57.3074L60.623 15.6598C61.3114 14.1809 62.6024 14.4425 63.5921 13.8339C64.5818 13.2253 65.9896 14.4055 65.9896 14.4055L76.4105 57.1004M70.5288 57.3074L74.6529 59.5452L76.4105 57.1004" stroke="#F7D57B"/>
<path d="M75.0339 57.9469L70.5432 57.2985L103.762 197.82C103.762 197.82 105.063 201.218 107.681 200.866C110.271 200.517 110.376 199.698 110.716 197.036L110.727 196.947L76.4047 55.7399L75.0339 57.9469Z" fill="#5E2224" stroke="#5E2224"/>
<path d="M106.046 197.097L73.4726 60.953" stroke="#D2784E" stroke-linecap="round"/>
<path d="M60.623 15.6598C60.9105 14.8735 61.3504 14.5222 62.2981 13.9477C64.3896 13.3777 66.1802 13.6064 65.9896 14.4055C65.7991 15.2047 63.0205 16.2314 63.0205 16.2314C63.0205 16.2314 61.151 16.6193 60.623 15.6598Z" fill="#F7E7AC"/>
<path d="M62.9438 18.3246L71.6098 54.5967M62.2981 13.9477C61.3504 14.5222 60.9105 14.8735 60.623 15.6598C61.151 16.6193 63.0205 16.2314 63.0205 16.2314C63.0205 16.2314 65.7991 15.2047 65.9896 14.4055C66.1802 13.6064 64.3896 13.3777 62.2981 13.9477Z" stroke="#F7E7AC" stroke-linecap="round"/>
<path d="M74.2293 16.5503C75.1226 15.1853 76.3628 15.6293 77.4295 15.1688C78.4962 14.7084 79.7203 16.0782 79.7203 16.0782L83.9137 59.8259L97.6005 202.614L94.0243 206.056L91.0428 203.546L78.063 59.1878L74.2293 16.5503Z" fill="#F7D57B"/>
<path d="M78.063 59.1878L91.0428 203.546L94.0243 206.056L97.6005 202.614L83.9137 59.8259M78.063 59.1878L74.2293 16.5503C75.1226 15.1853 76.3628 15.6293 77.4295 15.1688C78.4962 14.7084 79.7203 16.0782 79.7203 16.0782L83.9137 59.8259M78.063 59.1878L81.8238 61.9936L83.9137 59.8259" stroke="#F7D57B"/>
<path d="M82.43 60.4664L78.0786 59.181L90.8125 203.013C90.8125 203.013 91.6125 206.562 94.2545 206.589C96.8675 206.615 97.0884 205.82 97.8065 203.234L97.8307 203.147L84.1029 58.4787L82.43 60.4664Z" fill="#5E2224" stroke="#5E2224"/>
<path d="M93.1762 202.625L80.4539 63.2177" stroke="#D2784E" stroke-linecap="round"/>
<path d="M74.2293 16.5503C74.6264 15.8134 75.1122 15.5287 76.1325 15.096C78.2841 14.8317 80.0234 15.3146 79.7202 16.0782C79.4171 16.8418 76.5201 17.4596 76.5201 17.4596C76.5201 17.4596 74.6142 17.5755 74.2293 16.5503Z" fill="#F7E7AC"/>
<path d="M76.1441 19.5202L79.5213 56.66M76.1325 15.096C75.1122 15.5287 74.6264 15.8134 74.2293 16.5503C74.6142 17.5755 76.5201 17.4596 76.5201 17.4596C76.5201 17.4596 79.4171 16.8418 79.7202 16.0782C80.0234 15.3146 78.2841 14.8317 76.1325 15.096Z" stroke="#F7E7AC" stroke-linecap="round"/>
<path d="M68.8434 15.7615C69.5842 14.3082 70.8651 14.6158 71.8759 14.043C72.8868 13.4702 74.2514 14.7001 74.2514 14.7001L83.1377 57.7405L112.141 198.22L108.957 202.027L105.723 199.854L77.2523 57.737L68.8434 15.7615Z" fill="#F7D57B"/>
<path d="M77.2523 57.737L105.723 199.854L108.957 202.027L112.141 198.22L83.1377 57.7405M77.2523 57.737L68.8434 15.7615C69.5842 14.3082 70.8651 14.6158 71.8759 14.043C72.8868 13.4702 74.2514 14.7001 74.2514 14.7001L83.1377 57.7405M77.2523 57.737L81.2937 60.1209L83.1377 57.7405" stroke="#F7D57B"/>
<path d="M81.7317 58.5372L77.2671 57.7286L105.436 199.349C105.436 199.349 106.614 202.791 109.244 202.533C111.844 202.277 111.978 201.463 112.413 198.814L112.428 198.725L83.1806 56.3808L81.7317 58.5372Z" fill="#5E2224" stroke="#5E2224"/>
<path d="M107.744 198.708L80.0638 61.4855" stroke="#D2784E" stroke-linecap="round"/>
<path d="M68.8434 15.7615C69.1588 14.986 69.611 14.6506 70.5787 14.1104C72.6892 13.6157 74.4704 13.9083 74.2514 14.7001C74.0324 15.4919 71.2189 16.4185 71.2189 16.4185C71.2189 16.4185 69.3366 16.7393 68.8434 15.7615Z" fill="#F7E7AC"/>
<path d="M71.0673 18.5076L78.4296 55.0667M70.5787 14.1104C69.611 14.6506 69.1588 14.986 68.8434 15.7615C69.3366 16.7393 71.2189 16.4185 71.2189 16.4185C71.2189 16.4185 74.0324 15.4919 74.2514 14.7001C74.4704 13.9083 72.6892 13.6157 70.5787 14.1104Z" stroke="#F7E7AC" stroke-linecap="round"/>
<path d="M104.179 12.1008C105.223 10.8478 106.404 11.4315 107.517 11.0969C108.63 10.7622 109.688 12.2639 109.688 12.2639L108.818 56.2035L105.98 199.618L102.031 202.625L99.3585 199.789L103.08 54.8962L104.179 12.1008Z" fill="#F7D57B"/>
<path d="M103.08 54.8962L99.3585 199.789L102.031 202.625L105.98 199.618L108.818 56.2035M103.08 54.8962L104.179 12.1008C105.223 10.8478 106.404 11.4315 107.517 11.0969C108.63 10.7622 109.688 12.2639 109.688 12.2639L108.818 56.2035M103.08 54.8962L106.493 58.1162L108.818 56.2035" stroke="#F7D57B"/>
<path d="M107.271 56.6689L103.096 54.8913L99.1911 199.233C99.1911 199.233 99.5772 202.851 102.199 203.181C104.791 203.508 105.102 202.743 106.113 200.258L106.147 200.174L109.161 54.887L107.271 56.6689Z" fill="#5E2224" stroke="#5E2224"/>
<path d="M101.584 199.12L104.991 59.1745" stroke="#D2784E" stroke-linecap="round"/>
<path d="M104.179 12.1008C104.658 11.4145 105.174 11.1876 106.237 10.8752C108.405 10.8603 110.077 11.5402 109.688 12.2639C109.299 12.9875 106.35 13.2678 106.35 13.2678C106.35 13.2678 104.443 13.1636 104.179 12.1008Z" fill="#F7E7AC"/>
<path d="M105.739 15.2714L104.82 52.553M106.237 10.8752C105.174 11.1876 104.658 11.4145 104.179 12.1008C104.443 13.1636 106.35 13.2678 106.35 13.2678C106.35 13.2678 109.299 12.9875 109.688 12.2639C110.077 11.5402 108.405 10.8603 106.237 10.8752Z" stroke="#F7E7AC" stroke-linecap="round"/>
<path d="M81.3458 15.3243C82.1642 13.9133 83.4265 14.2898 84.4669 13.7725C85.5073 13.2552 86.8034 14.5572 86.8034 14.5572L93.3472 58.0155L114.705 199.859L111.32 203.488L108.208 201.143L87.4706 57.6934L81.3458 15.3243Z" fill="#F7D57B"/>
<path d="M87.4706 57.6934L108.208 201.143L111.32 203.488L114.705 199.859L93.3472 58.0155M87.4706 57.6934L81.3458 15.3243C82.1642 13.9133 83.4265 14.2898 84.4669 13.7725C85.5073 13.2552 86.8034 14.5572 86.8034 14.5572L93.3472 58.0155M87.4706 57.6934L91.377 60.2926L93.3472 58.0155" stroke="#F7D57B"/>
<path d="M91.9001 58.7349L87.4858 57.6858L107.949 200.623C107.949 200.623 108.939 204.124 111.579 204.008C114.189 203.894 114.367 203.088 114.945 200.467L114.964 200.379L93.4636 56.66L91.9001 58.7349Z" fill="#5E2224" stroke="#5E2224"/>
<path d="M110.288 200.108L90.0751 61.5887" stroke="#D2784E" stroke-linecap="round"/>
<path d="M81.3458 15.3243C81.7027 14.5671 82.1724 14.2566 83.1679 13.7696C85.3021 13.3898 87.0649 13.7784 86.8033 14.5572C86.5418 15.336 83.6822 16.109 83.6822 16.109C83.6822 16.109 81.7854 16.3274 81.3458 15.3243Z" fill="#F7E7AC"/>
<path d="M83.4178 18.1868L88.7907 55.0907M83.1679 13.7696C82.1724 14.2566 81.7027 14.5671 81.3458 15.3243C81.7854 16.3274 83.6822 16.109 83.6822 16.109C83.6822 16.109 86.5418 15.336 86.8033 14.5572C87.0649 13.7784 85.3021 13.3898 83.1679 13.7696Z" stroke="#F7E7AC" stroke-linecap="round"/>
<path d="M122.707 14.0538C123.956 13.0041 125.015 13.7866 126.17 13.6529C127.324 13.5193 128.101 15.1837 128.101 15.1837L119.513 58.2847L91.4828 198.961L87.0666 201.227L84.9345 197.965L114.094 55.988L122.707 14.0538Z" fill="#F7D57B"/>
<path d="M114.094 55.988L84.9345 197.965L87.0666 201.227L91.4828 198.961L119.513 58.2847M114.094 55.988L122.707 14.0538C123.956 13.0041 125.015 13.7866 126.17 13.6529C127.324 13.5193 128.101 15.1837 128.101 15.1837L119.513 58.2847M114.094 55.988L116.887 59.7583L119.513 58.2847" stroke="#F7D57B"/>
<path d="M117.908 58.4705L114.111 55.986L84.8676 197.388C84.8676 197.388 84.611 201.018 87.1334 201.804C89.628 202.582 90.0687 201.884 91.5013 199.615L91.5496 199.538L120.083 57.0491L117.908 58.4705Z" fill="#5E2224" stroke="#5E2224"/>
<path d="M87.2428 197.698L115.223 60.5358" stroke="#D2784E" stroke-linecap="round"/>
<path d="M122.707 14.0538C123.3 13.4626 123.847 13.3299 124.949 13.2095C127.085 13.5763 128.612 14.5398 128.101 15.1837C127.591 15.8276 124.639 15.5846 124.639 15.5846C124.639 15.5846 122.78 15.1465 122.707 14.0538Z" fill="#F7E7AC"/>
<path d="M123.685 17.4495L116.219 53.9875M124.949 13.2095C123.847 13.3299 123.3 13.4626 122.707 14.0538C122.78 15.1465 124.639 15.5846 124.639 15.5846C124.639 15.5846 127.591 15.8276 128.101 15.1837C128.612 14.5398 127.085 13.5763 124.949 13.2095Z" stroke="#F7E7AC" stroke-linecap="round"/>
<path d="M118.365 15.0343C119.523 13.8858 120.644 14.5787 121.783 14.351C122.922 14.1232 123.834 15.7183 123.834 15.7183L118.807 59.3781L102.401 201.879L98.1857 204.499L95.7934 201.423L113.218 57.5333L118.365 15.0343Z" fill="#F7D57B"/>
<path d="M113.218 57.5333L95.7934 201.423L98.1857 204.499L102.401 201.879L118.807 59.3781M113.218 57.5333L118.365 15.0343C119.523 13.8858 120.644 14.5787 121.783 14.351C122.922 14.1232 123.834 15.7183 123.834 15.7183L118.807 59.3781M113.218 57.5333L116.311 61.062L118.807 59.3781" stroke="#F7D57B"/>
<path d="M117.222 59.6949L113.235 57.53L95.6795 200.853C95.6795 200.853 95.7212 204.492 98.2996 205.069C100.85 205.64 101.232 204.908 102.473 202.529L102.515 202.449L119.273 58.1L117.222 59.6949Z" fill="#5E2224" stroke="#5E2224"/>
<path d="M98.072 200.967L114.716 61.9734" stroke="#D2784E" stroke-linecap="round"/>
<path d="M118.365 15.0343C118.907 14.3965 119.442 14.2194 120.53 14.0091C122.689 14.1996 124.289 15.0347 123.834 15.7183C123.378 16.4018 120.416 16.4016 120.416 16.4016C120.416 16.4016 118.528 16.1173 118.365 15.0343Z" fill="#F7E7AC"/>
<path d="M119.618 18.3384L115.172 55.3654M120.53 14.0091C119.442 14.2194 118.907 14.3965 118.365 15.0343C118.528 16.1173 120.416 16.4016 120.416 16.4016C120.416 16.4016 123.378 16.4018 123.834 15.7183C124.289 15.0347 122.689 14.1996 120.53 14.0091Z" stroke="#F7E7AC" stroke-linecap="round"/>
<path d="M87.3018 13.6587C88.0286 12.1983 89.3123 12.4936 90.3176 11.9111C91.3229 11.3285 92.6993 12.5452 92.6993 12.5452L102 55.498L132.356 195.691L129.209 199.529L125.953 197.387L96.1148 55.5512L87.3018 13.6587Z" fill="#F7D57B"/>
<path d="M96.1148 55.5512L125.953 197.387L129.209 199.529L132.356 195.691L102 55.498M96.1148 55.5512L87.3018 13.6587C88.0286 12.1983 89.3123 12.4936 90.3176 11.9111C91.3229 11.3285 92.6993 12.5452 92.6993 12.5452L102 55.498M96.1148 55.5512L100.179 57.8961L102 55.498" stroke="#F7D57B"/>
<path d="M100.602 56.3083L96.1295 55.5427L125.662 196.885C125.662 196.885 126.873 200.316 129.5 200.032C132.098 199.751 132.224 198.935 132.634 196.283L132.648 196.194L102.03 54.1379L100.602 56.3083Z" fill="#5E2224" stroke="#5E2224"/>
<path d="M127.964 196.222L98.9623 59.2725" stroke="#D2784E" stroke-linecap="round"/>
<path d="M87.3018 13.6587C87.6097 12.8802 88.0586 12.5405 89.0211 11.991C91.1267 11.4759 92.9107 11.7513 92.6993 12.5452C92.488 13.3391 89.6835 14.2928 89.6835 14.2928C89.6835 14.2928 87.8044 14.6317 87.3018 13.6587Z" fill="#F7E7AC"/>
<path d="M89.552 16.3833L97.2663 52.8697M89.0211 11.991C88.0586 12.5405 87.6097 12.8802 87.3018 13.6587C87.8044 14.6317 89.6835 14.2928 89.6835 14.2928C89.6835 14.2928 92.488 13.3391 92.6993 12.5452C92.9107 11.7513 91.1267 11.4759 89.0211 11.991Z" stroke="#F7E7AC" stroke-linecap="round"/>
<path d="M93.7529 9.74365C94.621 8.3626 95.8691 8.78377 96.9272 8.30383C97.9853 7.82389 99.2343 9.17108 99.2343 9.17108L104.229 52.8346L120.529 195.348L117.016 198.855L113.99 196.4L98.3671 52.3038L93.7529 9.74365Z" fill="#F7D57B"/>
<path d="M98.3671 52.3038L113.99 196.4L117.016 198.855L120.529 195.348L104.229 52.8346M98.3671 52.3038L93.7529 9.74365C94.621 8.3626 95.8691 8.78377 96.9272 8.30383C97.9853 7.82389 99.2343 9.17108 99.2343 9.17108L104.229 52.8346M98.3671 52.3038L102.179 55.0402L104.229 52.8346" stroke="#F7D57B"/>
<path d="M102.757 53.5021L98.3826 52.2967L113.749 195.871C113.749 195.871 114.614 199.405 117.256 199.384C119.869 199.362 120.076 198.563 120.746 195.964L120.769 195.877L104.393 51.4842L102.757 53.5021Z" fill="#5E2224" stroke="#5E2224"/>
<path d="M116.106 195.44L100.831 56.2892" stroke="#D2784E" stroke-linecap="round"/>
<path d="M93.7529 9.74366C94.1365 8.9996 94.6169 8.70605 95.6292 8.25472C97.7756 7.95109 99.5234 8.40206 99.2343 9.17108C98.9452 9.9401 96.06 10.6109 96.06 10.6109C96.06 10.6109 94.1566 10.7617 93.7529 9.74366Z" fill="#F7E7AC"/>
<path d="M95.7218 12.678L99.779 49.7497M95.6292 8.25472C94.6169 8.70605 94.1365 8.9996 93.7529 9.74366C94.1566 10.7617 96.06 10.6109 96.06 10.6109C96.06 10.6109 98.9452 9.9401 99.2343 9.17108C99.5234 8.40206 97.7756 7.95109 95.6292 8.25472Z" stroke="#F7E7AC" stroke-linecap="round"/>
<path d="M104.501 17.2102C105.702 16.1062 106.795 16.8409 107.942 16.6563C109.089 16.4717 109.94 18.1 109.94 18.1L103.269 61.5391L81.4968 203.319L77.1853 205.778L74.9108 202.614L97.754 59.4846L104.501 17.2102Z" fill="#F7D57B"/>
<path d="M97.754 59.4846L74.9108 202.614L77.1853 205.778L81.4968 203.319L103.269 61.5391M97.754 59.4846L104.501 17.2102C105.702 16.1062 106.795 16.8409 107.942 16.6563C109.089 16.4717 109.94 18.1 109.94 18.1L103.269 61.5391M97.754 59.4846L100.711 63.1276L103.269 61.5391" stroke="#F7D57B"/>
<path d="M101.674 61.7958L97.7708 59.4819L74.8185 202.04C74.8185 202.04 74.7229 205.678 77.2776 206.352C79.8043 207.019 80.2136 206.302 81.5443 203.971L81.5891 203.893L103.783 60.2795L101.674 61.7958Z" fill="#5E2224" stroke="#5E2224"/>
<path d="M77.205 202.245L99.0829 63.9781" stroke="#D2784E" stroke-linecap="round"/>
<path d="M104.501 17.2102C105.067 16.5933 105.608 16.4365 106.703 16.2674C108.854 16.5392 110.421 17.4342 109.94 18.1001C109.459 18.7659 106.499 18.6539 106.499 18.6539C106.499 18.6539 104.623 18.2986 104.501 17.2102Z" fill="#F7E7AC"/>
<path d="M105.628 20.5592L99.7881 57.392M106.703 16.2674C105.608 16.4365 105.067 16.5933 104.501 17.2102C104.623 18.2986 106.499 18.6539 106.499 18.6539C106.499 18.6539 109.459 18.7659 109.94 18.1001C110.421 17.4342 108.854 16.5392 106.703 16.2674Z" stroke="#F7E7AC" stroke-linecap="round"/>
<path d="M138.63 21.413C140.045 20.6025 140.949 21.5612 142.108 21.6353C143.268 21.7094 143.736 23.4857 143.736 23.4857L127.608 64.3675L74.967 197.801L70.2179 199.244L68.7009 195.655L122.685 61.1423L138.63 21.413Z" fill="#F7D57B"/>
<path d="M122.685 61.1423L68.7009 195.655L70.2179 199.244L74.967 197.801L127.608 64.3675M122.685 61.1423L138.63 21.413C140.045 20.6025 140.949 21.5612 142.108 21.6353C143.268 21.7094 143.736 23.4857 143.736 23.4857L127.608 64.3675M122.685 61.1423L124.762 65.3499L127.608 64.3675" stroke="#F7D57B"/>
<path d="M125.995 64.2644L122.702 61.1434L68.7379 195.075C68.7379 195.075 67.8388 198.601 70.1808 199.824C72.497 201.034 73.0549 200.425 74.8689 198.448L74.93 198.381L128.388 63.2531L125.995 64.2644Z" fill="#5E2224" stroke="#5E2224"/>
<path d="M71.0199 195.803L122.985 65.8185" stroke="#D2784E" stroke-linecap="round"/>
<path d="M138.63 21.413C139.318 20.9368 139.88 20.9037 140.986 20.9814C143.023 21.7229 144.353 22.943 143.736 23.4857C143.119 24.0284 140.258 23.2634 140.258 23.2634C140.258 23.2634 138.507 22.5012 138.63 21.413Z" fill="#F7E7AC"/>
<path d="M138.987 24.9285L125.132 59.5524M140.986 20.9814C139.88 20.9037 139.318 20.9368 138.63 21.413C138.507 22.5012 140.258 23.2634 140.258 23.2634C140.258 23.2634 143.119 24.0284 143.736 23.4857C144.353 22.943 143.023 21.7229 140.986 20.9814Z" stroke="#F7E7AC" stroke-linecap="round"/>
<path d="M116.599 10.2916C117.895 9.30165 118.917 10.1329 120.077 10.0536C121.236 9.97424 121.934 11.6733 121.934 11.6733L111.334 54.324L76.7362 193.531L72.2186 195.587L70.2418 192.229L106.029 51.7757L116.599 10.2916Z" fill="#F7D57B"/>
<path d="M106.029 51.7757L70.2418 192.229L72.2186 195.587L76.7362 193.531L111.334 54.324M106.029 51.7757L116.599 10.2916C117.895 9.30165 118.917 10.1329 120.077 10.0536C121.236 9.97424 121.934 11.6733 121.934 11.6733L111.334 54.324M106.029 51.7757L108.642 55.6729L111.334 54.324" stroke="#F7D57B"/>
<path d="M109.722 54.4344L106.046 51.7745L70.2021 191.649C70.2021 191.649 69.7755 195.263 72.2582 196.167C74.7136 197.061 75.1865 196.384 76.724 194.185L76.7758 194.111L111.961 53.1165L109.722 54.4344Z" fill="#5E2224" stroke="#5E2224"/>
<path d="M72.5601 192.07L106.943 56.3715" stroke="#D2784E" stroke-linecap="round"/>
<path d="M116.599 10.2917C117.219 9.72886 117.771 9.62198 118.878 9.55338C120.995 10.02 122.474 11.0541 121.934 11.6733C121.394 12.2926 118.457 11.9114 118.457 11.9114C118.457 11.9114 116.621 11.3866 116.599 10.2917Z" fill="#F7E7AC"/>
<path d="M117.417 13.7294L108.245 49.8771M118.878 9.55338C117.771 9.62198 117.219 9.72886 116.599 10.2917C116.621 11.3866 118.457 11.9114 118.457 11.9114C118.457 11.9114 121.394 12.2926 121.934 11.6733C122.474 11.0541 120.995 10.02 118.878 9.55338Z" stroke="#F7E7AC" stroke-linecap="round"/>
<path d="M125.742 18.9471C127.147 18.1181 128.063 19.0649 129.224 19.1238C130.384 19.1826 130.876 20.9526 130.876 20.9526L115.285 62.0426L64.4 196.156L59.6701 197.661L58.1062 194.091L110.321 58.8823L125.742 18.9471Z" fill="#F7D57B"/>
<path d="M110.321 58.8823L58.1062 194.091L59.6701 197.661L64.4 196.156L115.285 62.0426M110.321 58.8823L125.742 18.9471C127.147 18.1181 128.063 19.0649 129.224 19.1238C130.384 19.1826 130.876 20.9526 130.876 20.9526L115.285 62.0426M110.321 58.8823L112.452 63.0622L115.285 62.0426" stroke="#F7D57B"/>
<path d="M113.671 61.9607L110.337 58.8831L58.1356 193.511C58.1356 193.511 57.2829 197.048 59.6407 198.241C61.9725 199.42 62.5225 198.805 64.3103 196.803L64.3705 196.736L116.051 60.9181L113.671 61.9607Z" fill="#5E2224" stroke="#5E2224"/>
<path d="M60.4269 194.209L110.682 63.5541" stroke="#D2784E" stroke-linecap="round"/>
<path d="M125.742 18.9471C126.425 18.4619 126.986 18.4214 128.093 18.4847C130.139 19.1994 131.485 20.4019 130.876 20.9526C130.266 21.5034 127.395 20.776 127.395 20.776C127.395 20.776 125.634 20.0369 125.742 18.9471Z" fill="#F7E7AC"/>
<path d="M126.146 22.4577L112.747 57.2603M128.093 18.4847C126.986 18.4214 126.425 18.4619 125.742 18.9471C125.634 20.0369 127.395 20.776 127.395 20.776C127.395 20.776 130.266 21.5034 130.876 20.9526C131.485 20.4019 130.139 19.1994 128.093 18.4847Z" stroke="#F7E7AC" stroke-linecap="round"/>
<path d="M147.941 32.4824C149.49 31.9726 150.183 33.0931 151.304 33.3984C152.425 33.7038 152.527 35.538 152.527 35.538L128.521 72.3504L50.1684 192.502L45.2263 192.962L44.4608 189.141L124.346 68.2027L147.941 32.4824Z" fill="#F7D57B"/>
<path d="M124.346 68.2027L44.4608 189.141L45.2263 192.962L50.1684 192.502L128.521 72.3504M124.346 68.2027L147.941 32.4824C149.49 31.9726 150.183 33.0931 151.304 33.3984C152.425 33.7038 152.527 35.538 152.527 35.538L128.521 72.3504M124.346 68.2027L125.536 72.7415L128.521 72.3504" stroke="#F7D57B"/>
<path d="M126.962 71.9257L124.362 68.2072L44.6135 188.581C44.6135 188.581 43.0249 191.855 45.0737 193.523C47.0999 195.173 47.7686 194.689 49.9426 193.116L50.0158 193.063L129.51 71.4154L126.962 71.9257Z" fill="#5E2224" stroke="#5E2224"/>
<path d="M46.7029 189.752L123.702 72.844" stroke="#D2784E" stroke-linecap="round"/>
<path d="M147.941 32.4824C148.711 32.1541 149.268 32.2345 150.336 32.5326C152.182 33.6679 153.241 35.1301 152.527 35.538C151.814 35.9458 149.164 34.622 149.164 34.622C149.164 34.622 147.602 33.5239 147.941 32.4824Z" fill="#F7E7AC"/>
<path d="M147.585 35.9982L127.063 67.1363M150.336 32.5326C149.268 32.2345 148.711 32.1541 147.941 32.4824C147.602 33.5239 149.164 34.622 149.164 34.622C149.164 34.622 151.814 35.9458 152.527 35.538C153.241 35.1301 152.182 33.6679 150.336 32.5326Z" stroke="#F7E7AC" stroke-linecap="round"/>
</svg>
